<svg width="494" height="411" viewBox="0 0 494 411" fill="none" xmlns="http://www.w3.org/2000/svg">
<path d="M132.631 82.737C160.543 51.1613 210.39 173.708 311.266 112.677C412.142 51.6454 606.306 259.34 408.757 278.761C211.207 298.182 150.137 388.675 109.348 263.329C87.5184 196.244 104.718 114.313 132.631 82.737Z" fill="#F5F1F6"/>
<circle cx="222.545" cy="57.0628" r="26.901" fill="#F4F4F4" fill-opacity="0.81"/>
<circle cx="480.142" cy="74.9968" r="13.8581" fill="#F5F1F6"/>
<circle cx="196.459" cy="381.505" r="29.3465" fill="#F4F4F4" fill-opacity="0.81"/>
<circle cx="373.353" cy="338.301" r="13.8581" fill="#F4F4F4" fill-opacity="0.81"/>
<path d="M271.252 108.716C271.838 104.798 275.203 101.898 279.164 101.898H408.051C412.953 101.898 416.702 106.267 415.959 111.112L388.253 291.571C387.654 295.474 384.295 298.357 380.346 298.357H252.208C247.319 298.357 243.573 294.01 244.296 289.175L271.252 108.716Z" fill="#C19CC8"/>
<path d="M243.453 148.544C244.088 144.678 247.429 141.842 251.347 141.842H380.192C385.143 141.842 388.905 146.293 388.08 151.174L360.622 313.699C359.971 317.549 356.637 320.367 352.733 320.367H224.63C219.694 320.367 215.936 315.94 216.736 311.069L243.453 148.544Z" fill="white"/>
<path d="M254.445 159.124C255.088 155.266 258.426 152.439 262.337 152.439H365.801C370.794 152.439 374.567 156.962 373.671 161.874L362.322 224.131C361.629 227.933 358.317 230.697 354.452 230.697H251.96C247.017 230.697 243.256 226.258 244.069 221.381L254.445 159.124Z" fill="#701181"/>
<path d="M243.074 240.939C243.47 239.694 244.626 238.848 245.933 238.848H353.291C355.216 238.848 356.643 240.636 356.217 242.513L353.504 254.447C353.194 255.813 351.98 256.782 350.579 256.782H242.136C240.105 256.782 238.661 254.808 239.277 252.873L243.074 240.939Z" fill="#C19CC8"/>
<path d="M235.777 265.748C236.053 264.331 237.299 263.311 238.742 263.321L347.895 264.083C349.717 264.096 351.107 265.716 350.842 267.519L347.644 289.272C347.428 290.744 346.165 291.835 344.676 291.835H234.337C232.45 291.835 231.032 290.114 231.392 288.262L235.777 265.748Z" fill="#C19CC8"/>
<rect x="159.776" y="42.3895" width="80.703" height="28.5314" rx="14.2657" fill="black" fill-opacity="0.08"/>
<rect x="155.7" y="37.4984" width="80.703" height="29.3465" rx="14.6733" fill="white"/>
<g clip-path="url(#clip0_985:36)">
<path d="M184.12 46.2125C182.201 44.5767 179.346 44.8709 177.584 46.6889L176.894 47.3999L176.204 46.6889C174.446 44.8709 171.587 44.5767 169.668 46.2125C167.468 48.09 167.353 51.4596 169.321 53.4947L176.099 60.4931C176.537 60.945 177.248 60.945 177.686 60.4931L184.463 53.4947C186.436 51.4596 186.32 48.09 184.12 46.2125Z" fill="#F852A8"/>
</g>
<path d="M199.174 57.3207H200.434V55.0667H201.834V53.9607H200.434V47.2967H198.908L193.994 54.1007V55.0667H199.174V57.3207ZM195.464 53.9607L199.23 48.6267V53.9607H195.464ZM203.107 52.1547C203.107 55.0947 203.835 57.3207 206.635 57.3207C209.421 57.3207 210.149 55.0947 210.149 52.1547C210.149 49.2567 209.421 47.0447 206.635 47.0447C203.835 47.0447 203.107 49.2567 203.107 52.1547ZM208.889 52.1547C208.889 54.3387 208.623 56.1587 206.635 56.1587C204.633 56.1587 204.367 54.3387 204.367 52.1547C204.367 50.0547 204.633 48.2067 206.635 48.2067C208.623 48.2067 208.889 50.0547 208.889 52.1547ZM211.898 52.1547C211.898 55.0947 212.626 57.3207 215.426 57.3207C218.212 57.3207 218.94 55.0947 218.94 52.1547C218.94 49.2567 218.212 47.0447 215.426 47.0447C212.626 47.0447 211.898 49.2567 211.898 52.1547ZM217.68 52.1547C217.68 54.3387 217.414 56.1587 215.426 56.1587C213.424 56.1587 213.158 54.3387 213.158 52.1547C213.158 50.0547 213.424 48.2067 215.426 48.2067C217.414 48.2067 217.68 50.0547 217.68 52.1547Z" fill="#761387"/>
<rect x="290.205" y="4.89108" width="80.703" height="28.5314" rx="14.2657" fill="black" fill-opacity="0.08"/>
<rect x="286.129" width="80.703" height="29.3465" rx="14.6733" fill="white"/>
<g clip-path="url(#clip1_985:36)">
<path d="M308.705 19.6201C308.705 20.9399 309.831 22.0099 311.221 22.0099C312.61 22.0099 313.736 20.9399 313.736 19.6201C313.736 18.3003 312.61 17.2303 311.221 17.2303C309.831 17.2303 308.705 18.3003 308.705 19.6201ZM312.447 19.1663V20.0738H311.698V20.7847H310.743V20.0738H309.995V19.1663H310.743V18.4554H311.698V19.1663H312.447Z" fill="#F852A8"/>
<path d="M308.767 17.2885C309.422 16.6658 310.294 16.3227 311.221 16.3227C311.427 16.3227 311.631 16.3398 311.83 16.3732C311.495 14.5218 310.129 13.001 308.316 12.3643C309.203 11.7871 309.786 10.8182 309.786 9.72223C309.786 7.95728 308.274 6.52142 306.417 6.52142C304.559 6.52142 303.047 7.95728 303.047 9.72223C303.047 10.8181 303.63 11.7871 304.517 12.3643C302.421 13.1004 300.923 15.0176 300.923 17.2611V19.3664H307.76C307.823 18.5811 308.175 17.8511 308.767 17.2885Z" fill="#F852A8"/>
</g>
<path d="M321.29 19.6259H322.578V9.50391H319.946V10.6659H321.29V19.6259ZM324.612 19.5139H331.346V18.4499H326.53C328.336 16.9799 331.052 14.8379 331.052 12.3179C331.052 10.4419 329.82 9.32191 327.916 9.32191C326.096 9.32191 324.738 10.4419 324.654 12.5979H325.886C325.942 11.3239 326.614 10.4139 327.93 10.4139C329.302 10.4139 329.792 11.2539 329.792 12.3739C329.792 14.4459 327.272 16.4619 324.612 18.6039V19.5139ZM334.275 18.8419C334.275 18.3519 333.897 17.9739 333.435 17.9739C332.945 17.9739 332.567 18.3519 332.567 18.8419C332.567 19.3319 332.945 19.7099 333.435 19.7099C333.897 19.7099 334.275 19.3319 334.275 18.8419ZM336.123 9.48992V15.2019H337.327C337.663 14.4039 338.405 13.8719 339.427 13.8719C340.897 13.8719 341.639 14.7119 341.639 16.1539C341.639 17.5399 340.953 18.5759 339.413 18.5759C338.223 18.5759 337.397 17.9459 337.159 16.8819H335.913C336.165 18.5199 337.383 19.6539 339.399 19.6539C341.765 19.6539 342.857 18.0859 342.857 16.1259C342.857 14.5579 342.073 12.7799 339.609 12.7799C338.615 12.7799 337.719 13.2279 337.299 13.8019V10.6099H342.213V9.48992H336.123ZM350.052 19.6259H351.718L347.252 14.7539L351.676 9.86792H350.066L346.034 14.3899V9.86792H344.76V19.6259H346.034V15.1739L350.052 19.6259Z" fill="#761387"/>
<rect x="72.5511" y="113.31" width="142.657" height="71.736" rx="4" fill="black" fill-opacity="0.08"/>
<rect x="60.3235" y="100.267" width="145.102" height="73.3664" rx="4" fill="white"/>
<rect x="60.3235" y="100.267" width="145.102" height="21.1947" rx="4" fill="#761387"/>
<rect x="86.4093" y="128.799" width="28.5314" height="3.26073" rx="1.63036" fill="#C19CC8"/>
<rect x="86.4093" y="151.624" width="9.78218" height="3.26073" rx="1.63036" fill="#C19CC8"/>
<rect x="98.637" y="151.624" width="9.78218" height="3.26073" rx="1.63036" fill="#C19CC8"/>
<rect x="110.05" y="151.624" width="9.78218" height="3.26073" rx="1.63036" fill="#C19CC8"/>
<rect x="86.4093" y="134.505" width="111.68" height="14.6733" rx="4" fill="#C19CC8"/>
<circle cx="74.9967" cy="136.951" r="8.967" fill="#C19CC8"/>
<path d="M20.9522 361.167L25.8991 354.571H33.0447L29.7467 365.015H14.9059L20.9522 361.167Z" fill="#F4BD85"/>
<path d="M22.5994 389.86L30.517 387.56L36.2288 391.854L27.3175 398.22L15.4544 389.303L22.5994 389.86Z" fill="#F4BD85"/>
<path d="M23.0181 406.805L4.86054 387.977C4.17758 387.269 4.82032 386.104 5.78362 386.304L19.781 389.21C20.1348 389.283 20.4203 389.542 20.5353 389.885C22.2904 395.114 24.3782 397.063 28.6401 399.066C29.1305 399.297 29.3636 399.871 29.1459 400.367C28.0747 402.809 27.0065 404.451 24.393 406.853C23.9994 407.215 23.3891 407.19 23.0181 406.805Z" fill="#5635A6"/>
<path d="M31.325 372.239L4.69047 370.884C3.68365 370.832 3.37669 369.492 4.26083 369.008L17.5845 361.709C17.8894 361.542 18.2586 361.546 18.5633 361.713C23.2846 364.304 26.2236 364.306 30.9873 362.886C31.5278 362.725 32.1035 363.029 32.2439 363.575C32.8755 366.031 33.0086 367.94 32.347 371.443C32.2556 371.927 31.817 372.264 31.325 372.239Z" fill="#5635A6"/>
<path d="M100.104 304.002L156.241 328.832C156.788 329.074 157 329.744 156.676 330.247C143.574 350.595 107.549 349.799 35.6481 395.734C35.1471 396.054 34.462 395.881 34.1961 395.35L29.5538 386.065C29.3452 385.648 29.4528 385.142 29.813 384.846L95.8366 330.536C96.4681 330.016 96.2414 328.997 95.4523 328.782C79.92 324.557 69.0003 318.822 58.2172 309.786C57.7155 309.365 56.9497 309.523 56.6626 310.112L34.9679 354.559C34.8003 354.903 34.4515 355.121 34.0692 355.121H22.3087C21.6352 355.121 21.1543 354.468 21.3534 353.825L42.1498 286.637C42.2894 286.186 42.7308 285.894 43.2008 285.938C65.7182 288.048 80.0858 292.264 100.104 304.002Z" fill="#F852A8"/>
<path d="M101.935 257.911C111.458 236.168 127.895 228.417 134.184 229.896C140.003 231.265 138.84 239.272 138.487 241.133C138.438 241.393 138.35 241.645 138.239 241.886C129.896 259.952 121.962 267.05 109.967 277.191C108.915 278.081 107.474 278.368 106.161 277.946L46.6034 258.824C44.6175 258.186 43.4548 256.129 43.9325 254.099L44.4153 252.047C44.9212 249.896 47.0746 248.563 49.225 249.069L97.2007 260.355C99.1509 260.814 101.131 259.746 101.935 257.911Z" fill="#F4BD85"/>
<path d="M130.008 208.041C130.605 212.891 134.853 213.148 134.853 213.148C134.853 213.148 145.839 234.082 157.16 228.429C168.482 222.777 169.625 202.405 168.442 198.913C167.259 195.42 159.392 192.116 151.224 190.991C143.056 189.865 133.608 191.563 131.66 196.062C129.711 200.56 129.412 203.192 130.008 208.041Z" fill="black"/>
<path d="M135.481 220.672L136.858 210.676C136.94 210.083 137.522 209.694 138.102 209.845L151.864 213.435C152.354 213.563 152.671 214.037 152.602 214.539L152.292 216.786C152.275 216.913 152.233 217.035 152.169 217.146L149.723 221.419C149.55 221.72 149.546 222.09 149.713 222.395L151.056 224.858C151.121 224.977 151.209 225.082 151.316 225.165L161.606 233.265C162.408 233.896 161.861 235.181 160.851 235.041L148.32 233.314C148.04 233.275 147.79 233.12 147.631 232.887L145.799 230.205C145.538 229.823 145.048 229.67 144.616 229.835L139.997 231.601C139.425 231.82 138.793 231.478 138.663 230.88L136.751 222.1C136.684 221.792 136.432 221.56 136.121 221.517C135.711 221.46 135.424 221.082 135.481 220.672Z" fill="#F4BD85"/>
<path d="M178.508 243.576C159.552 230.634 147.309 226.12 124.086 231.429C122.537 231.783 121.376 233.008 121.096 234.572C119.274 244.739 112.09 282.828 103.923 299.217C102.265 302.543 102.291 311.355 105.282 313.562C120.898 325.082 132.846 328.21 151.031 331.463C153.019 331.818 154.961 330.626 155.548 328.693L180.059 248.011C180.563 246.353 179.939 244.553 178.508 243.576Z" fill="url(#paint0_linear_985:36)"/>
<path d="M149.043 277.478C153.557 253.874 168.585 242.44 175.407 242.44C181.698 242.44 182.45 250.534 182.54 252.471C182.553 252.748 182.523 253.026 182.465 253.296C178.251 273.017 171.796 281.818 161.887 294.604C161.064 295.666 159.76 296.245 158.421 296.143L92.2561 291.092C90.1711 290.933 88.5605 289.195 88.5605 287.104V284.916C88.5605 282.707 90.3514 280.916 92.5606 280.916H144.996C146.99 280.916 148.668 279.437 149.043 277.478Z" fill="#F4BD85"/>
<path d="M36.3407 242.537C36.3407 240.144 38.4275 238.286 40.8042 238.564L89.9689 244.299C91.985 244.534 93.5054 246.242 93.5054 248.272V283.805C93.5054 286.305 91.2375 288.193 88.7789 287.739L39.6142 278.658C37.7173 278.308 36.3407 276.653 36.3407 274.725V242.537Z" fill="#F3F3F3"/>
<path d="M36.3407 254.365V274.731C36.3407 275.198 36.6633 275.602 37.1182 275.706L74.7637 284.298C75.8097 284.537 76.4463 283.185 75.5959 282.53L37.9504 253.572C37.2928 253.066 36.3407 253.535 36.3407 254.365Z" fill="#C4C4C4" fill-opacity="0.5"/>
<rect x="35.9326" y="274.321" width="79.3425" height="8.79457" rx="4.39728" transform="rotate(11.7456 35.9326 274.321)" fill="#F5F5F5"/>
<circle cx="64.9231" cy="263.327" r="5.49661" fill="white"/>
<defs>
<linearGradient id="paint0_linear_985:36" x1="138.854" y1="229.248" x2="138.854" y2="332.077" gradientUnits="userSpaceOnUse">
<stop offset="0.208333" stop-color="#761387"/>
<stop offset="0.90625" stop-color="#1A2CAB"/>
</linearGradient>
<clipPath id="clip0_985:36">
<rect width="17.934" height="17.934" fill="white" transform="translate(167.927 44.0198)"/>
</clipPath>
<clipPath id="clip1_985:36">
<rect width="16.3036" height="15.4885" fill="white" transform="translate(299.172 6.52142)"/>
</clipPath>
</defs>
</svg>
